<?xml version="1.0" encoding="UTF-8"?>
<svg xmlns="http://www.w3.org/2000/svg" width="1200" height="900" viewBox="0 0 1200 900" role="img" aria-label="Scandinavian Minimal Park Front Overcast">
  <defs>
    <linearGradient id="sky" x1="0" y1="0" x2="0" y2="1">
      <stop offset="0%" stop-color="#9db0c0" />
      <stop offset="100%" stop-color="#eef3f7" />
    </linearGradient>
  </defs>

  <rect x="0" y="0" width="1200" height="900" fill="url(#sky)" />
  <rect x="0" y="504" width="1200" height="396" fill="#819a73" />
  <rect x="144" y="288" width="912" height="504" rx="26" fill="#89a47a" />

  <path d="M 240 389 Q 600 365 984 393" stroke="#c6bcab" stroke-width="18" stroke-linecap="round" fill="none" opacity="0.88" />
  <path d="M 456 510 Q 600 498 898 514" stroke="#c6bcab" stroke-width="18" stroke-linecap="round" fill="none" opacity="0.88" />
  <path d="M 672 631 Q 600 631 811 635" stroke="#c6bcab" stroke-width="18" stroke-linecap="round" fill="none" opacity="0.88" />
  <circle cx="516" cy="370" r="14" fill="#6c8661" fill-opacity="0.64" />
  <circle cx="613" cy="437" r="15" fill="#6c8661" fill-opacity="0.72" />
  <circle cx="710" cy="504" r="16" fill="#6c8661" fill-opacity="0.80" />
  <circle cx="807" cy="571" r="17" fill="#6c8661" fill-opacity="0.64" />
  <circle cx="904" cy="638" r="10" fill="#6c8661" fill-opacity="0.72" />
  <circle cx="1001" cy="705" r="11" fill="#6c8661" fill-opacity="0.80" />
  <circle cx="186" cy="772" r="12" fill="#6c8661" fill-opacity="0.64" />
  <circle cx="283" cy="335" r="13" fill="#6c8661" fill-opacity="0.72" />
  <circle cx="380" cy="402" r="14" fill="#6c8661" fill-opacity="0.80" />
  <circle cx="477" cy="469" r="15" fill="#6c8661" fill-opacity="0.64" />
  <circle cx="574" cy="536" r="16" fill="#6c8661" fill-opacity="0.72" />
  <circle cx="671" cy="603" r="17" fill="#6c8661" fill-opacity="0.80" />
  <ellipse cx="636" cy="540" rx="78" ry="46" fill="#6890aa" fill-opacity="0.45" />

  <rect x="144" y="288" width="912" height="504" rx="26" fill="none" stroke="#9e9689" stroke-opacity="0.45" stroke-width="2" />
</svg>
