<?xml version="1.0" encoding="UTF-8"?>
<svg xmlns="http://www.w3.org/2000/svg" width="1200" height="900" viewBox="0 0 1200 900" role="img" aria-label="Transit Podium Residential Front Rain Reflection">
  <defs>
    <linearGradient id="sky" x1="0" y1="0" x2="0" y2="1">
      <stop offset="0%" stop-color="#a7b6c7" />
      <stop offset="100%" stop-color="#eff4f9" />
    </linearGradient>
    <linearGradient id="facade" x1="0" y1="0" x2="0" y2="1">
      <stop offset="0%" stop-color="#b7aea3" />
      <stop offset="100%" stop-color="#434387" />
    </linearGradient>
    <linearGradient id="street" x1="0" y1="0" x2="0" y2="1">
      <stop offset="0%" stop-color="#55514d" />
      <stop offset="100%" stop-color="#35322f" />
    </linearGradient>
    <linearGradient id="wet" x1="0" y1="0" x2="0" y2="1">
      <stop offset="0%" stop-color="#d9e6f2" />
      <stop offset="100%" stop-color="#7f9fb9" />
    </linearGradient>
  </defs>

  <rect x="0" y="0" width="1200" height="900" fill="url(#sky)" />
  <rect x="0" y="666" width="1200" height="54" fill="#d1c3b2" />
  <rect x="0" y="711" width="1200" height="189" fill="url(#street)" />
  <rect x="0" y="711" width="1200" height="189" fill="url(#wet)" fill-opacity="0.58" />

  <ellipse cx="168" cy="603" rx="42" ry="58" fill="#769565" fill-opacity="0.86" />
  <ellipse cx="1032" cy="594" rx="46" ry="62" fill="#769565" fill-opacity="0.84" />

  <rect x="318" y="187" width="564" height="369" rx="8" fill="url(#facade)" />
  <rect x="318" y="556" width="564" height="144" rx="5" fill="#383871" />
  <rect x="308" y="173" width="584" height="16" rx="6" fill="#32363c" fill-opacity="0.94" />

  <rect x="340" y="205" width="96" height="47" rx="3" fill="#e1f1ff" fill-opacity="0.50" />
  <rect x="446" y="205" width="96" height="47" rx="3" fill="#e1f1ff" fill-opacity="0.37" />
  <rect x="552" y="205" width="96" height="47" rx="3" fill="#e1f1ff" fill-opacity="0.40" />
  <rect x="658" y="205" width="96" height="47" rx="3" fill="#e1f1ff" fill-opacity="0.43" />
  <rect x="764" y="205" width="96" height="47" rx="3" fill="#e1f1ff" fill-opacity="0.45" />
  <rect x="340" y="262" width="96" height="47" rx="3" fill="#e1f1ff" fill-opacity="0.36" />
  <rect x="446" y="262" width="96" height="47" rx="3" fill="#e1f1ff" fill-opacity="0.39" />
  <rect x="552" y="262" width="96" height="47" rx="3" fill="#e1f1ff" fill-opacity="0.42" />
  <rect x="658" y="262" width="96" height="47" rx="3" fill="#e1f1ff" fill-opacity="0.45" />
  <rect x="764" y="262" width="96" height="47" rx="3" fill="#e1f1ff" fill-opacity="0.47" />
  <rect x="340" y="319" width="96" height="47" rx="3" fill="#e1f1ff" fill-opacity="0.39" />
  <rect x="446" y="319" width="96" height="47" rx="3" fill="#e1f1ff" fill-opacity="0.41" />
  <rect x="552" y="319" width="96" height="47" rx="3" fill="#e1f1ff" fill-opacity="0.44" />
  <rect x="658" y="319" width="96" height="47" rx="3" fill="#e1f1ff" fill-opacity="0.47" />
  <rect x="764" y="319" width="96" height="47" rx="3" fill="#e1f1ff" fill-opacity="0.49" />
  <rect x="340" y="376" width="96" height="47" rx="3" fill="#e1f1ff" fill-opacity="0.41" />
  <rect x="446" y="376" width="96" height="47" rx="3" fill="#e1f1ff" fill-opacity="0.43" />
  <rect x="552" y="376" width="96" height="47" rx="3" fill="#e1f1ff" fill-opacity="0.46" />
  <rect x="658" y="376" width="96" height="47" rx="3" fill="#e1f1ff" fill-opacity="0.49" />
  <rect x="764" y="376" width="96" height="47" rx="3" fill="#e1f1ff" fill-opacity="0.35" />
  <rect x="340" y="433" width="96" height="47" rx="3" fill="#e1f1ff" fill-opacity="0.43" />
  <rect x="446" y="433" width="96" height="47" rx="3" fill="#e1f1ff" fill-opacity="0.45" />
  <rect x="552" y="433" width="96" height="47" rx="3" fill="#e1f1ff" fill-opacity="0.48" />
  <rect x="658" y="433" width="96" height="47" rx="3" fill="#e1f1ff" fill-opacity="0.51" />
  <rect x="764" y="433" width="96" height="47" rx="3" fill="#e1f1ff" fill-opacity="0.38" />
  <rect x="340" y="490" width="96" height="47" rx="3" fill="#e1f1ff" fill-opacity="0.45" />
  <rect x="446" y="490" width="96" height="47" rx="3" fill="#e1f1ff" fill-opacity="0.47" />
  <rect x="552" y="490" width="96" height="47" rx="3" fill="#e1f1ff" fill-opacity="0.50" />
  <rect x="658" y="490" width="96" height="47" rx="3" fill="#e1f1ff" fill-opacity="0.37" />
  <rect x="764" y="490" width="96" height="47" rx="3" fill="#e1f1ff" fill-opacity="0.40" />
  <rect x="336" y="572" width="124" height="89" rx="3" fill="#e3f2ff" fill-opacity="0.51" />
  <rect x="470" y="572" width="124" height="89" rx="3" fill="#e3f2ff" fill-opacity="0.51" />
  <rect x="604" y="572" width="124" height="89" rx="3" fill="#e3f2ff" fill-opacity="0.51" />
  <rect x="738" y="572" width="124" height="89" rx="3" fill="#e3f2ff" fill-opacity="0.51" />

  <rect x="306" y="169" width="588" height="539" fill="none" stroke="#2e3237" stroke-opacity="0.35" stroke-width="2" />
</svg>
