<?xml version="1.0" encoding="UTF-8"?>
<svg xmlns="http://www.w3.org/2000/svg" width="1200" height="900" viewBox="0 0 1200 900" role="img" aria-label="Minimalist Infill Townhouse Front Golden Hour">
  <defs>
    <linearGradient id="sky" x1="0" y1="0" x2="0" y2="1">
      <stop offset="0%" stop-color="#9bacc0" />
      <stop offset="100%" stop-color="#edf3f8" />
    </linearGradient>
    <linearGradient id="facade" x1="0" y1="0" x2="0" y2="1">
      <stop offset="0%" stop-color="#bdb5a9" />
      <stop offset="100%" stop-color="#9f46ad" />
    </linearGradient>
    <linearGradient id="street" x1="0" y1="0" x2="0" y2="1">
      <stop offset="0%" stop-color="#5c5854" />
      <stop offset="100%" stop-color="#3b3834" />
    </linearGradient>
    <linearGradient id="wet" x1="0" y1="0" x2="0" y2="1">
      <stop offset="0%" stop-color="#d9e6f2" />
      <stop offset="100%" stop-color="#7f9fb9" />
    </linearGradient>
  </defs>

  <rect x="0" y="0" width="1200" height="900" fill="url(#sky)" />
  <rect x="0" y="666" width="1200" height="54" fill="#d6c7b6" />
  <rect x="0" y="711" width="1200" height="189" fill="url(#street)" />
  

  <ellipse cx="168" cy="603" rx="42" ry="58" fill="#7a9a68" fill-opacity="0.86" />
  <ellipse cx="1032" cy="594" rx="46" ry="62" fill="#7a9a68" fill-opacity="0.84" />

  <rect x="306" y="185" width="588" height="356" rx="8" fill="url(#facade)" />
  <rect x="306" y="541" width="588" height="139" rx="5" fill="#863b91" />
  <rect x="296" y="171" width="608" height="16" rx="6" fill="#34393f" fill-opacity="0.94" />

  <rect x="328" y="203" width="69" height="45" rx="3" fill="#e0f0ff" fill-opacity="0.59" />
  <rect x="407" y="203" width="69" height="45" rx="3" fill="#e0f0ff" fill-opacity="0.36" />
  <rect x="486" y="203" width="69" height="45" rx="3" fill="#e0f0ff" fill-opacity="0.41" />
  <rect x="565" y="203" width="69" height="45" rx="3" fill="#e0f0ff" fill-opacity="0.45" />
  <rect x="644" y="203" width="69" height="45" rx="3" fill="#e0f0ff" fill-opacity="0.50" />
  <rect x="723" y="203" width="69" height="45" rx="3" fill="#e0f0ff" fill-opacity="0.55" />
  <rect x="802" y="203" width="69" height="45" rx="3" fill="#e0f0ff" fill-opacity="0.60" />
  <rect x="328" y="258" width="69" height="45" rx="3" fill="#e0f0ff" fill-opacity="0.63" />
  <rect x="407" y="258" width="69" height="45" rx="3" fill="#e0f0ff" fill-opacity="0.39" />
  <rect x="486" y="258" width="69" height="45" rx="3" fill="#e0f0ff" fill-opacity="0.44" />
  <rect x="565" y="258" width="69" height="45" rx="3" fill="#e0f0ff" fill-opacity="0.49" />
  <rect x="644" y="258" width="69" height="45" rx="3" fill="#e0f0ff" fill-opacity="0.54" />
  <rect x="723" y="258" width="69" height="45" rx="3" fill="#e0f0ff" fill-opacity="0.59" />
  <rect x="802" y="258" width="69" height="45" rx="3" fill="#e0f0ff" fill-opacity="0.35" />
  <rect x="328" y="313" width="69" height="45" rx="3" fill="#e0f0ff" fill-opacity="0.38" />
  <rect x="407" y="313" width="69" height="45" rx="3" fill="#e0f0ff" fill-opacity="0.43" />
  <rect x="486" y="313" width="69" height="45" rx="3" fill="#e0f0ff" fill-opacity="0.48" />
  <rect x="565" y="313" width="69" height="45" rx="3" fill="#e0f0ff" fill-opacity="0.53" />
  <rect x="644" y="313" width="69" height="45" rx="3" fill="#e0f0ff" fill-opacity="0.57" />
  <rect x="723" y="313" width="69" height="45" rx="3" fill="#e0f0ff" fill-opacity="0.62" />
  <rect x="802" y="313" width="69" height="45" rx="3" fill="#e0f0ff" fill-opacity="0.39" />
  <rect x="328" y="368" width="69" height="45" rx="3" fill="#e0f0ff" fill-opacity="0.42" />
  <rect x="407" y="368" width="69" height="45" rx="3" fill="#e0f0ff" fill-opacity="0.47" />
  <rect x="486" y="368" width="69" height="45" rx="3" fill="#e0f0ff" fill-opacity="0.52" />
  <rect x="565" y="368" width="69" height="45" rx="3" fill="#e0f0ff" fill-opacity="0.56" />
  <rect x="644" y="368" width="69" height="45" rx="3" fill="#e0f0ff" fill-opacity="0.61" />
  <rect x="723" y="368" width="69" height="45" rx="3" fill="#e0f0ff" fill-opacity="0.38" />
  <rect x="802" y="368" width="69" height="45" rx="3" fill="#e0f0ff" fill-opacity="0.43" />
  <rect x="328" y="423" width="69" height="45" rx="3" fill="#e0f0ff" fill-opacity="0.46" />
  <rect x="407" y="423" width="69" height="45" rx="3" fill="#e0f0ff" fill-opacity="0.50" />
  <rect x="486" y="423" width="69" height="45" rx="3" fill="#e0f0ff" fill-opacity="0.55" />
  <rect x="565" y="423" width="69" height="45" rx="3" fill="#e0f0ff" fill-opacity="0.60" />
  <rect x="644" y="423" width="69" height="45" rx="3" fill="#e0f0ff" fill-opacity="0.37" />
  <rect x="723" y="423" width="69" height="45" rx="3" fill="#e0f0ff" fill-opacity="0.41" />
  <rect x="802" y="423" width="69" height="45" rx="3" fill="#e0f0ff" fill-opacity="0.46" />
  <rect x="328" y="478" width="69" height="45" rx="3" fill="#e0f0ff" fill-opacity="0.49" />
  <rect x="407" y="478" width="69" height="45" rx="3" fill="#e0f0ff" fill-opacity="0.54" />
  <rect x="486" y="478" width="69" height="45" rx="3" fill="#e0f0ff" fill-opacity="0.59" />
  <rect x="565" y="478" width="69" height="45" rx="3" fill="#e0f0ff" fill-opacity="0.36" />
  <rect x="644" y="478" width="69" height="45" rx="3" fill="#e0f0ff" fill-opacity="0.40" />
  <rect x="723" y="478" width="69" height="45" rx="3" fill="#e0f0ff" fill-opacity="0.45" />
  <rect x="802" y="478" width="69" height="45" rx="3" fill="#e0f0ff" fill-opacity="0.50" />
  <rect x="324" y="557" width="83" height="86" rx="3" fill="#e2f1ff" fill-opacity="0.57" />
  <rect x="417" y="557" width="83" height="86" rx="3" fill="#e2f1ff" fill-opacity="0.57" />
  <rect x="510" y="557" width="83" height="86" rx="3" fill="#e2f1ff" fill-opacity="0.57" />
  <rect x="603" y="557" width="83" height="86" rx="3" fill="#e2f1ff" fill-opacity="0.57" />
  <rect x="696" y="557" width="83" height="86" rx="3" fill="#e2f1ff" fill-opacity="0.57" />
  <rect x="789" y="557" width="83" height="86" rx="3" fill="#e2f1ff" fill-opacity="0.57" />

  <rect x="294" y="167" width="612" height="521" fill="none" stroke="#30343a" stroke-opacity="0.35" stroke-width="2" />
</svg>
