<?xml version="1.0" encoding="UTF-8"?>
<svg xmlns="http://www.w3.org/2000/svg" width="1200" height="900" viewBox="0 0 1200 900" role="img" aria-label="Civic Monumental Institution Front Golden Hour">
  <defs>
    <linearGradient id="sky" x1="0" y1="0" x2="0" y2="1">
      <stop offset="0%" stop-color="#9bacc0" />
      <stop offset="100%" stop-color="#edf3f8" />
    </linearGradient>
    <linearGradient id="facade" x1="0" y1="0" x2="0" y2="1">
      <stop offset="0%" stop-color="#bdb5a9" />
      <stop offset="100%" stop-color="#60c846" />
    </linearGradient>
    <linearGradient id="street" x1="0" y1="0" x2="0" y2="1">
      <stop offset="0%" stop-color="#5c5854" />
      <stop offset="100%" stop-color="#3b3834" />
    </linearGradient>
    <linearGradient id="wet" x1="0" y1="0" x2="0" y2="1">
      <stop offset="0%" stop-color="#d9e6f2" />
      <stop offset="100%" stop-color="#7f9fb9" />
    </linearGradient>
  </defs>

  <rect x="0" y="0" width="1200" height="900" fill="url(#sky)" />
  <rect x="0" y="666" width="1200" height="54" fill="#d6c7b6" />
  <rect x="0" y="711" width="1200" height="189" fill="url(#street)" />
  

  <ellipse cx="168" cy="603" rx="42" ry="58" fill="#7a9a68" fill-opacity="0.86" />
  <ellipse cx="1032" cy="594" rx="46" ry="62" fill="#7a9a68" fill-opacity="0.84" />

  <rect x="288" y="176" width="624" height="324" rx="8" fill="url(#facade)" />
  <rect x="288" y="500" width="624" height="126" rx="5" fill="#51a83b" />
  <rect x="278" y="162" width="644" height="16" rx="6" fill="#34393f" fill-opacity="0.94" />

  <rect x="310" y="194" width="88" height="90" rx="3" fill="#e0f0ff" fill-opacity="0.61" />
  <rect x="408" y="194" width="88" height="90" rx="3" fill="#e0f0ff" fill-opacity="0.38" />
  <rect x="506" y="194" width="88" height="90" rx="3" fill="#e0f0ff" fill-opacity="0.43" />
  <rect x="604" y="194" width="88" height="90" rx="3" fill="#e0f0ff" fill-opacity="0.47" />
  <rect x="702" y="194" width="88" height="90" rx="3" fill="#e0f0ff" fill-opacity="0.52" />
  <rect x="800" y="194" width="88" height="90" rx="3" fill="#e0f0ff" fill-opacity="0.57" />
  <rect x="310" y="294" width="88" height="90" rx="3" fill="#e0f0ff" fill-opacity="0.37" />
  <rect x="408" y="294" width="88" height="90" rx="3" fill="#e0f0ff" fill-opacity="0.41" />
  <rect x="506" y="294" width="88" height="90" rx="3" fill="#e0f0ff" fill-opacity="0.46" />
  <rect x="604" y="294" width="88" height="90" rx="3" fill="#e0f0ff" fill-opacity="0.51" />
  <rect x="702" y="294" width="88" height="90" rx="3" fill="#e0f0ff" fill-opacity="0.56" />
  <rect x="800" y="294" width="88" height="90" rx="3" fill="#e0f0ff" fill-opacity="0.60" />
  <rect x="310" y="394" width="88" height="90" rx="3" fill="#e0f0ff" fill-opacity="0.40" />
  <rect x="408" y="394" width="88" height="90" rx="3" fill="#e0f0ff" fill-opacity="0.45" />
  <rect x="506" y="394" width="88" height="90" rx="3" fill="#e0f0ff" fill-opacity="0.50" />
  <rect x="604" y="394" width="88" height="90" rx="3" fill="#e0f0ff" fill-opacity="0.55" />
  <rect x="702" y="394" width="88" height="90" rx="3" fill="#e0f0ff" fill-opacity="0.59" />
  <rect x="800" y="394" width="88" height="90" rx="3" fill="#e0f0ff" fill-opacity="0.36" />
  <rect x="306" y="516" width="109" height="78" rx="3" fill="#e2f1ff" fill-opacity="0.57" />
  <rect x="425" y="516" width="109" height="78" rx="3" fill="#e2f1ff" fill-opacity="0.57" />
  <rect x="544" y="516" width="109" height="78" rx="3" fill="#e2f1ff" fill-opacity="0.57" />
  <rect x="663" y="516" width="109" height="78" rx="3" fill="#e2f1ff" fill-opacity="0.57" />
  <rect x="782" y="516" width="109" height="78" rx="3" fill="#e2f1ff" fill-opacity="0.57" />

  <rect x="276" y="158" width="648" height="476" fill="none" stroke="#30343a" stroke-opacity="0.35" stroke-width="2" />
</svg>
