<?xml version="1.0" encoding="UTF-8"?>
<svg xmlns="http://www.w3.org/2000/svg" width="1200" height="900" viewBox="0 0 1200 900" role="img" aria-label="Coastal Breezeway Mixed Use Front Overcast">
  <defs>
    <linearGradient id="sky" x1="0" y1="0" x2="0" y2="1">
      <stop offset="0%" stop-color="#a0b0c3" />
      <stop offset="100%" stop-color="#eef3f9" />
    </linearGradient>
    <linearGradient id="facade" x1="0" y1="0" x2="0" y2="1">
      <stop offset="0%" stop-color="#b8b0a4" />
      <stop offset="100%" stop-color="#43beb3" />
    </linearGradient>
    <linearGradient id="street" x1="0" y1="0" x2="0" y2="1">
      <stop offset="0%" stop-color="#5c5854" />
      <stop offset="100%" stop-color="#3b3834" />
    </linearGradient>
    <linearGradient id="wet" x1="0" y1="0" x2="0" y2="1">
      <stop offset="0%" stop-color="#d9e6f2" />
      <stop offset="100%" stop-color="#7f9fb9" />
    </linearGradient>
  </defs>

  <rect x="0" y="0" width="1200" height="900" fill="url(#sky)" />
  <rect x="0" y="666" width="1200" height="54" fill="#d2c3b3" />
  <rect x="0" y="711" width="1200" height="189" fill="url(#street)" />
  

  <ellipse cx="168" cy="603" rx="42" ry="58" fill="#779665" fill-opacity="0.86" />
  <ellipse cx="1032" cy="594" rx="46" ry="62" fill="#779665" fill-opacity="0.84" />

  <rect x="318" y="191" width="564" height="337" rx="8" fill="url(#facade)" />
  <rect x="318" y="528" width="564" height="131" rx="5" fill="#38a096" />
  <rect x="308" y="177" width="584" height="16" rx="6" fill="#32373d" fill-opacity="0.94" />

  <rect x="340" y="209" width="96" height="42" rx="3" fill="#e0f1ff" fill-opacity="0.42" />
  <rect x="446" y="209" width="96" height="42" rx="3" fill="#e0f1ff" fill-opacity="0.44" />
  <rect x="552" y="209" width="96" height="42" rx="3" fill="#e0f1ff" fill-opacity="0.46" />
  <rect x="658" y="209" width="96" height="42" rx="3" fill="#e0f1ff" fill-opacity="0.36" />
  <rect x="764" y="209" width="96" height="42" rx="3" fill="#e0f1ff" fill-opacity="0.38" />
  <rect x="340" y="261" width="96" height="42" rx="3" fill="#e0f1ff" fill-opacity="0.44" />
  <rect x="446" y="261" width="96" height="42" rx="3" fill="#e0f1ff" fill-opacity="0.46" />
  <rect x="552" y="261" width="96" height="42" rx="3" fill="#e0f1ff" fill-opacity="0.36" />
  <rect x="658" y="261" width="96" height="42" rx="3" fill="#e0f1ff" fill-opacity="0.38" />
  <rect x="764" y="261" width="96" height="42" rx="3" fill="#e0f1ff" fill-opacity="0.40" />
  <rect x="340" y="313" width="96" height="42" rx="3" fill="#e0f1ff" fill-opacity="0.45" />
  <rect x="446" y="313" width="96" height="42" rx="3" fill="#e0f1ff" fill-opacity="0.35" />
  <rect x="552" y="313" width="96" height="42" rx="3" fill="#e0f1ff" fill-opacity="0.37" />
  <rect x="658" y="313" width="96" height="42" rx="3" fill="#e0f1ff" fill-opacity="0.39" />
  <rect x="764" y="313" width="96" height="42" rx="3" fill="#e0f1ff" fill-opacity="0.41" />
  <rect x="340" y="365" width="96" height="42" rx="3" fill="#e0f1ff" fill-opacity="0.47" />
  <rect x="446" y="365" width="96" height="42" rx="3" fill="#e0f1ff" fill-opacity="0.37" />
  <rect x="552" y="365" width="96" height="42" rx="3" fill="#e0f1ff" fill-opacity="0.39" />
  <rect x="658" y="365" width="96" height="42" rx="3" fill="#e0f1ff" fill-opacity="0.41" />
  <rect x="764" y="365" width="96" height="42" rx="3" fill="#e0f1ff" fill-opacity="0.43" />
  <rect x="340" y="417" width="96" height="42" rx="3" fill="#e0f1ff" fill-opacity="0.36" />
  <rect x="446" y="417" width="96" height="42" rx="3" fill="#e0f1ff" fill-opacity="0.38" />
  <rect x="552" y="417" width="96" height="42" rx="3" fill="#e0f1ff" fill-opacity="0.41" />
  <rect x="658" y="417" width="96" height="42" rx="3" fill="#e0f1ff" fill-opacity="0.43" />
  <rect x="764" y="417" width="96" height="42" rx="3" fill="#e0f1ff" fill-opacity="0.45" />
  <rect x="340" y="469" width="96" height="42" rx="3" fill="#e0f1ff" fill-opacity="0.38" />
  <rect x="446" y="469" width="96" height="42" rx="3" fill="#e0f1ff" fill-opacity="0.40" />
  <rect x="552" y="469" width="96" height="42" rx="3" fill="#e0f1ff" fill-opacity="0.42" />
  <rect x="658" y="469" width="96" height="42" rx="3" fill="#e0f1ff" fill-opacity="0.44" />
  <rect x="764" y="469" width="96" height="42" rx="3" fill="#e0f1ff" fill-opacity="0.46" />
  <rect x="336" y="544" width="124" height="81" rx="3" fill="#e2f2ff" fill-opacity="0.49" />
  <rect x="470" y="544" width="124" height="81" rx="3" fill="#e2f2ff" fill-opacity="0.49" />
  <rect x="604" y="544" width="124" height="81" rx="3" fill="#e2f2ff" fill-opacity="0.49" />
  <rect x="738" y="544" width="124" height="81" rx="3" fill="#e2f2ff" fill-opacity="0.49" />

  <rect x="306" y="173" width="588" height="494" fill="none" stroke="#2e3338" stroke-opacity="0.35" stroke-width="2" />
</svg>
