<?xml version="1.0" encoding="UTF-8"?>
<svg xmlns="http://www.w3.org/2000/svg" width="1200" height="900" viewBox="0 0 1200 900" role="img" aria-label="Custom Prompt-Ready Archetype Front Golden Hour">
  <defs>
    <linearGradient id="sky" x1="0" y1="0" x2="0" y2="1">
      <stop offset="0%" stop-color="#9bacc0" />
      <stop offset="100%" stop-color="#edf3f8" />
    </linearGradient>
    <linearGradient id="facade" x1="0" y1="0" x2="0" y2="1">
      <stop offset="0%" stop-color="#bdb5a9" />
      <stop offset="100%" stop-color="#ac9aa0" />
    </linearGradient>
    <linearGradient id="street" x1="0" y1="0" x2="0" y2="1">
      <stop offset="0%" stop-color="#5c5854" />
      <stop offset="100%" stop-color="#3b3834" />
    </linearGradient>
    <linearGradient id="wet" x1="0" y1="0" x2="0" y2="1">
      <stop offset="0%" stop-color="#d9e6f2" />
      <stop offset="100%" stop-color="#7f9fb9" />
    </linearGradient>
  </defs>

  <rect x="0" y="0" width="1200" height="900" fill="url(#sky)" />
  <rect x="0" y="666" width="1200" height="54" fill="#d6c7b6" />
  <rect x="0" y="711" width="1200" height="189" fill="url(#street)" />
  

  <ellipse cx="168" cy="603" rx="42" ry="58" fill="#7a9a68" fill-opacity="0.86" />
  <ellipse cx="1032" cy="594" rx="46" ry="62" fill="#7a9a68" fill-opacity="0.84" />

  <rect x="324" y="181" width="552" height="343" rx="8" fill="url(#facade)" />
  <rect x="324" y="524" width="552" height="134" rx="5" fill="#908186" />
  <rect x="314" y="167" width="572" height="16" rx="6" fill="#34393f" fill-opacity="0.94" />

  <rect x="346" y="199" width="54" height="70" rx="3" fill="#e0f0ff" fill-opacity="0.37" />
  <rect x="410" y="199" width="54" height="70" rx="3" fill="#e0f0ff" fill-opacity="0.42" />
  <rect x="474" y="199" width="54" height="70" rx="3" fill="#e0f0ff" fill-opacity="0.46" />
  <rect x="538" y="199" width="54" height="70" rx="3" fill="#e0f0ff" fill-opacity="0.51" />
  <rect x="602" y="199" width="54" height="70" rx="3" fill="#e0f0ff" fill-opacity="0.56" />
  <rect x="666" y="199" width="54" height="70" rx="3" fill="#e0f0ff" fill-opacity="0.61" />
  <rect x="730" y="199" width="54" height="70" rx="3" fill="#e0f0ff" fill-opacity="0.38" />
  <rect x="794" y="199" width="54" height="70" rx="3" fill="#e0f0ff" fill-opacity="0.42" />
  <rect x="346" y="279" width="54" height="70" rx="3" fill="#e0f0ff" fill-opacity="0.41" />
  <rect x="410" y="279" width="54" height="70" rx="3" fill="#e0f0ff" fill-opacity="0.45" />
  <rect x="474" y="279" width="54" height="70" rx="3" fill="#e0f0ff" fill-opacity="0.50" />
  <rect x="538" y="279" width="54" height="70" rx="3" fill="#e0f0ff" fill-opacity="0.55" />
  <rect x="602" y="279" width="54" height="70" rx="3" fill="#e0f0ff" fill-opacity="0.60" />
  <rect x="666" y="279" width="54" height="70" rx="3" fill="#e0f0ff" fill-opacity="0.36" />
  <rect x="730" y="279" width="54" height="70" rx="3" fill="#e0f0ff" fill-opacity="0.41" />
  <rect x="794" y="279" width="54" height="70" rx="3" fill="#e0f0ff" fill-opacity="0.46" />
  <rect x="346" y="359" width="54" height="70" rx="3" fill="#e0f0ff" fill-opacity="0.44" />
  <rect x="410" y="359" width="54" height="70" rx="3" fill="#e0f0ff" fill-opacity="0.49" />
  <rect x="474" y="359" width="54" height="70" rx="3" fill="#e0f0ff" fill-opacity="0.54" />
  <rect x="538" y="359" width="54" height="70" rx="3" fill="#e0f0ff" fill-opacity="0.59" />
  <rect x="602" y="359" width="54" height="70" rx="3" fill="#e0f0ff" fill-opacity="0.35" />
  <rect x="666" y="359" width="54" height="70" rx="3" fill="#e0f0ff" fill-opacity="0.40" />
  <rect x="730" y="359" width="54" height="70" rx="3" fill="#e0f0ff" fill-opacity="0.45" />
  <rect x="794" y="359" width="54" height="70" rx="3" fill="#e0f0ff" fill-opacity="0.50" />
  <rect x="346" y="439" width="54" height="70" rx="3" fill="#e0f0ff" fill-opacity="0.48" />
  <rect x="410" y="439" width="54" height="70" rx="3" fill="#e0f0ff" fill-opacity="0.53" />
  <rect x="474" y="439" width="54" height="70" rx="3" fill="#e0f0ff" fill-opacity="0.57" />
  <rect x="538" y="439" width="54" height="70" rx="3" fill="#e0f0ff" fill-opacity="0.62" />
  <rect x="602" y="439" width="54" height="70" rx="3" fill="#e0f0ff" fill-opacity="0.39" />
  <rect x="666" y="439" width="54" height="70" rx="3" fill="#e0f0ff" fill-opacity="0.44" />
  <rect x="730" y="439" width="54" height="70" rx="3" fill="#e0f0ff" fill-opacity="0.48" />
  <rect x="794" y="439" width="54" height="70" rx="3" fill="#e0f0ff" fill-opacity="0.53" />
  <rect x="342" y="540" width="65" height="83" rx="3" fill="#e2f1ff" fill-opacity="0.57" />
  <rect x="417" y="540" width="65" height="83" rx="3" fill="#e2f1ff" fill-opacity="0.57" />
  <rect x="492" y="540" width="65" height="83" rx="3" fill="#e2f1ff" fill-opacity="0.57" />
  <rect x="567" y="540" width="65" height="83" rx="3" fill="#e2f1ff" fill-opacity="0.57" />
  <rect x="642" y="540" width="65" height="83" rx="3" fill="#e2f1ff" fill-opacity="0.57" />
  <rect x="717" y="540" width="65" height="83" rx="3" fill="#e2f1ff" fill-opacity="0.57" />
  <rect x="792" y="540" width="65" height="83" rx="3" fill="#e2f1ff" fill-opacity="0.57" />

  <rect x="312" y="163" width="576" height="503" fill="none" stroke="#30343a" stroke-opacity="0.35" stroke-width="2" />
</svg>
