<?xml version="1.0" encoding="UTF-8"?>
<svg xmlns="http://www.w3.org/2000/svg" width="1200" height="900" viewBox="0 0 1200 900" role="img" aria-label="Contemporary Urban Square Front Overcast">
  <defs>
    <linearGradient id="sky" x1="0" y1="0" x2="0" y2="1">
      <stop offset="0%" stop-color="#9db0c0" />
      <stop offset="100%" stop-color="#eef3f7" />
    </linearGradient>
  </defs>

  <rect x="0" y="0" width="1200" height="900" fill="url(#sky)" />
  <rect x="0" y="504" width="1200" height="396" fill="#b6ab9d" />
  <rect x="144" y="288" width="912" height="504" rx="26" fill="#c2b6a7" />

  <path d="M 240 389 Q 600 365 984 393" stroke="#b3a89d" stroke-width="18" stroke-linecap="round" fill="none" opacity="0.88" />
  <path d="M 456 510 Q 600 498 898 514" stroke="#b3a89d" stroke-width="18" stroke-linecap="round" fill="none" opacity="0.88" />
  <path d="M 672 631 Q 600 631 811 635" stroke="#b3a89d" stroke-width="18" stroke-linecap="round" fill="none" opacity="0.88" />
  <circle cx="696" cy="175" r="10" fill="#6c8661" fill-opacity="0.64" />
  <circle cx="793" cy="242" r="11" fill="#6c8661" fill-opacity="0.72" />
  <circle cx="890" cy="-195" r="12" fill="#6c8661" fill-opacity="0.80" />
  <circle cx="987" cy="-128" r="13" fill="#6c8661" fill-opacity="0.64" />
  <circle cx="172" cy="-61" r="14" fill="#6c8661" fill-opacity="0.72" />
  <circle cx="269" cy="6" r="15" fill="#6c8661" fill-opacity="0.80" />
  <circle cx="366" cy="73" r="16" fill="#6c8661" fill-opacity="0.64" />
  <circle cx="463" cy="140" r="17" fill="#6c8661" fill-opacity="0.72" />
  <circle cx="560" cy="207" r="10" fill="#6c8661" fill-opacity="0.80" />
  <circle cx="657" cy="274" r="11" fill="#6c8661" fill-opacity="0.64" />
  <circle cx="754" cy="-163" r="12" fill="#6c8661" fill-opacity="0.72" />
  <circle cx="851" cy="-96" r="13" fill="#6c8661" fill-opacity="0.80" />
  <circle cx="600" cy="540" r="44" fill="#6890aa" fill-opacity="0.55" />

  <rect x="144" y="288" width="912" height="504" rx="26" fill="none" stroke="#8f867e" stroke-opacity="0.45" stroke-width="2" />
</svg>
