<?xml version="1.0" encoding="UTF-8"?>
<svg xmlns="http://www.w3.org/2000/svg" width="1200" height="900" viewBox="0 0 1200 900" role="img" aria-label="Parisian Boulevard Corner Front Overcast">
  <defs>
    <linearGradient id="sky" x1="0" y1="0" x2="0" y2="1">
      <stop offset="0%" stop-color="#a0b0c3" />
      <stop offset="100%" stop-color="#eef3f9" />
    </linearGradient>
    <linearGradient id="facade" x1="0" y1="0" x2="0" y2="1">
      <stop offset="0%" stop-color="#b8b0a4" />
      <stop offset="100%" stop-color="#4343a4" />
    </linearGradient>
    <linearGradient id="street" x1="0" y1="0" x2="0" y2="1">
      <stop offset="0%" stop-color="#5c5854" />
      <stop offset="100%" stop-color="#3b3834" />
    </linearGradient>
    <linearGradient id="wet" x1="0" y1="0" x2="0" y2="1">
      <stop offset="0%" stop-color="#d9e6f2" />
      <stop offset="100%" stop-color="#7f9fb9" />
    </linearGradient>
  </defs>

  <rect x="0" y="0" width="1200" height="900" fill="url(#sky)" />
  <rect x="0" y="666" width="1200" height="54" fill="#d2c3b3" />
  <rect x="0" y="711" width="1200" height="189" fill="url(#street)" />
  

  <ellipse cx="168" cy="603" rx="42" ry="58" fill="#779665" fill-opacity="0.86" />
  <ellipse cx="1032" cy="594" rx="46" ry="62" fill="#779665" fill-opacity="0.84" />

  <rect x="282" y="166" width="636" height="305" rx="8" fill="url(#facade)" />
  <rect x="282" y="471" width="636" height="118" rx="5" fill="#38388a" />
  <rect x="272" y="152" width="656" height="16" rx="6" fill="#32373d" fill-opacity="0.94" />

  <rect x="304" y="184" width="76" height="84" rx="3" fill="#e0f1ff" fill-opacity="0.43" />
  <rect x="390" y="184" width="76" height="84" rx="3" fill="#e0f1ff" fill-opacity="0.45" />
  <rect x="476" y="184" width="76" height="84" rx="3" fill="#e0f1ff" fill-opacity="0.35" />
  <rect x="562" y="184" width="76" height="84" rx="3" fill="#e0f1ff" fill-opacity="0.37" />
  <rect x="648" y="184" width="76" height="84" rx="3" fill="#e0f1ff" fill-opacity="0.39" />
  <rect x="734" y="184" width="76" height="84" rx="3" fill="#e0f1ff" fill-opacity="0.41" />
  <rect x="820" y="184" width="76" height="84" rx="3" fill="#e0f1ff" fill-opacity="0.43" />
  <rect x="304" y="278" width="76" height="84" rx="3" fill="#e0f1ff" fill-opacity="0.44" />
  <rect x="390" y="278" width="76" height="84" rx="3" fill="#e0f1ff" fill-opacity="0.47" />
  <rect x="476" y="278" width="76" height="84" rx="3" fill="#e0f1ff" fill-opacity="0.37" />
  <rect x="562" y="278" width="76" height="84" rx="3" fill="#e0f1ff" fill-opacity="0.39" />
  <rect x="648" y="278" width="76" height="84" rx="3" fill="#e0f1ff" fill-opacity="0.41" />
  <rect x="734" y="278" width="76" height="84" rx="3" fill="#e0f1ff" fill-opacity="0.43" />
  <rect x="820" y="278" width="76" height="84" rx="3" fill="#e0f1ff" fill-opacity="0.45" />
  <rect x="304" y="372" width="76" height="84" rx="3" fill="#e0f1ff" fill-opacity="0.46" />
  <rect x="390" y="372" width="76" height="84" rx="3" fill="#e0f1ff" fill-opacity="0.36" />
  <rect x="476" y="372" width="76" height="84" rx="3" fill="#e0f1ff" fill-opacity="0.38" />
  <rect x="562" y="372" width="76" height="84" rx="3" fill="#e0f1ff" fill-opacity="0.40" />
  <rect x="648" y="372" width="76" height="84" rx="3" fill="#e0f1ff" fill-opacity="0.42" />
  <rect x="734" y="372" width="76" height="84" rx="3" fill="#e0f1ff" fill-opacity="0.44" />
  <rect x="820" y="372" width="76" height="84" rx="3" fill="#e0f1ff" fill-opacity="0.46" />
  <rect x="300" y="487" width="91" height="73" rx="3" fill="#e2f2ff" fill-opacity="0.49" />
  <rect x="401" y="487" width="91" height="73" rx="3" fill="#e2f2ff" fill-opacity="0.49" />
  <rect x="502" y="487" width="91" height="73" rx="3" fill="#e2f2ff" fill-opacity="0.49" />
  <rect x="603" y="487" width="91" height="73" rx="3" fill="#e2f2ff" fill-opacity="0.49" />
  <rect x="704" y="487" width="91" height="73" rx="3" fill="#e2f2ff" fill-opacity="0.49" />
  <rect x="805" y="487" width="91" height="73" rx="3" fill="#e2f2ff" fill-opacity="0.49" />

  <rect x="270" y="148" width="660" height="449" fill="none" stroke="#2e3338" stroke-opacity="0.35" stroke-width="2" />
</svg>
