<svg xmlns="http://www.w3.org/2000/svg" width="1640" height="820" viewBox="0 0 1640 820"><rect width="1640" height="820" fill="#ffffff"/><rect x="0" y="0" width="1640" height="118" fill="#ffffff"/><rect x="0" y="0" width="8" height="118" fill="#b51d2b"/><text x="210.0" y="40.0" font-family="Helvetica, Arial, sans-serif" font-size="16" fill="#b51d2b" text-anchor="start" font-weight="bold" letter-spacing="1.5">CITY OF CALGARY  ·  STREET MANUAL</text><text x="210.0" y="78.0" font-family="Helvetica, Arial, sans-serif" font-size="33" fill="#23272b" text-anchor="start" font-weight="bold" letter-spacing="0.5">ARTERIAL – 6 LANES</text><line x1="960" y1="34" x2="960" y2="96" stroke="#b4babc" stroke-width="1"/><text x="1000.0" y="50.0" font-family="Helvetica, Arial, sans-serif" font-size="11" fill="#5a6066" text-anchor="start" font-weight="normal" letter-spacing="1">RIGHT-OF-WAY</text><text x="1000.0" y="68.0" font-family="Helvetica, Arial, sans-serif" font-size="17" fill="#23272b" text-anchor="start" font-weight="bold">46.0 m</text><text x="1230.0" y="50.0" font-family="Helvetica, Arial, sans-serif" font-size="11" fill="#5a6066" text-anchor="start" font-weight="normal" letter-spacing="1">TARGET SPEED</text><text x="1230.0" y="68.0" font-family="Helvetica, Arial, sans-serif" font-size="17" fill="#23272b" text-anchor="start" font-weight="bold">70 km/h</text><text x="1000.0" y="86.0" font-family="Helvetica, Arial, sans-serif" font-size="11" fill="#5a6066" text-anchor="start" font-weight="normal" letter-spacing="1">CLASSIFICATION</text><text x="1000.0" y="104.0" font-family="Helvetica, Arial, sans-serif" font-size="17" fill="#23272b" text-anchor="start" font-weight="bold">Arterial – 6 Lanes</text><text x="1230.0" y="86.0" font-family="Helvetica, Arial, sans-serif" font-size="11" fill="#5a6066" text-anchor="start" font-weight="normal" letter-spacing="1">FIGURE</text><text x="1230.0" y="104.0" font-family="Helvetica, Arial, sans-serif" font-size="17" fill="#23272b" text-anchor="start" font-weight="bold">12</text><rect x="210.0" y="196" width="1220.0" height="416.0" fill="#edf3f8"/><line x1="210.0" y1="196.0" x2="210.0" y2="762.0" stroke="#b4babc" stroke-width="0.6"/><line x1="289.6" y1="196.0" x2="289.6" y2="762.0" stroke="#b4babc" stroke-width="0.6"/><line x1="422.2" y1="196.0" x2="422.2" y2="762.0" stroke="#b4babc" stroke-width="0.6"/><line x1="515.0" y1="196.0" x2="515.0" y2="762.0" stroke="#b4babc" stroke-width="0.6"/><line x1="607.8" y1="196.0" x2="607.8" y2="762.0" stroke="#b4babc" stroke-width="0.6"/><line x1="700.7" y1="196.0" x2="700.7" y2="762.0" stroke="#b4babc" stroke-width="0.6"/><line x1="939.3" y1="196.0" x2="939.3" y2="762.0" stroke="#b4babc" stroke-width="0.6"/><line x1="1032.2" y1="196.0" x2="1032.2" y2="762.0" stroke="#b4babc" stroke-width="0.6"/><line x1="1125.0" y1="196.0" x2="1125.0" y2="762.0" stroke="#b4babc" stroke-width="0.6"/><line x1="1217.8" y1="196.0" x2="1217.8" y2="762.0" stroke="#b4babc" stroke-width="0.6"/><line x1="1350.4" y1="196.0" x2="1350.4" y2="762.0" stroke="#b4babc" stroke-width="0.6"/><line x1="1430.0" y1="196.0" x2="1430.0" y2="762.0" stroke="#b4babc" stroke-width="0.6"/><rect x="210.0" y="612.0" width="79.6" height="7" fill="#727880"/><rect x="289.6" y="612.0" width="132.6" height="7" fill="#9ec196"/><rect x="289.6" y="612.0" width="132.6" height="2.5" fill="#83a87a"/><rect x="422.2" y="612.0" width="92.8" height="7" fill="#4b5056"/><rect x="515.0" y="612.0" width="92.8" height="7" fill="#4b5056"/><rect x="607.8" y="612.0" width="92.8" height="7" fill="#4b5056"/><rect x="700.7" y="612.0" width="238.7" height="7" fill="#9ec196"/><rect x="700.7" y="612.0" width="238.7" height="2.5" fill="#83a87a"/><rect x="939.3" y="612.0" width="92.8" height="7" fill="#4b5056"/><rect x="1032.2" y="612.0" width="92.8" height="7" fill="#4b5056"/><rect x="1125.0" y="612.0" width="92.8" height="7" fill="#4b5056"/><rect x="1217.8" y="612.0" width="132.6" height="7" fill="#9ec196"/><rect x="1217.8" y="612.0" width="132.6" height="2.5" fill="#83a87a"/><rect x="1350.4" y="612.0" width="79.6" height="7" fill="#727880"/><path d="M210.0 612.0 L289.6 612.0 L422.2 612.0 L515.0 612.0 L607.8 612.0 L700.7 612.0 L939.3 612.0 L1032.2 612.0 L1125.0 612.0 L1217.8 612.0 L1350.4 612.0 L1430.0 612.0" fill="none" stroke="#23272b" stroke-width="1"/><rect x="419.7" y="608.0" width="5" height="4.0" fill="#bcc1c6"/><line x1="422.2" y1="611.0" x2="422.2" y2="610.4" stroke="#eef0f1" stroke-width="2"/><rect x="1215.3" y="608.0" width="5" height="4.0" fill="#bcc1c6"/><line x1="1217.8" y1="611.0" x2="1217.8" y2="610.4" stroke="#eef0f1" stroke-width="2"/><circle cx="233.9" cy="570.0" r="3.0" fill="#3b424a"/><path d="M228.0 574.2 Q233.9 571.2 239.7 574.2 L239.2 592.2 L228.6 592.2 Z" fill="#3b424a"/><rect x="228.6" y="592.2" width="4.2" height="19.8" fill="#3b424a"/><rect x="234.9" y="592.2" width="4.2" height="19.8" fill="#3b424a"/><circle cx="249.5" cy="603.2" r="8.8" fill="none" stroke="#3b424a" stroke-width="2.4"/><circle cx="278.7" cy="603.2" r="8.8" fill="none" stroke="#3b424a" stroke-width="2.4"/><line x1="249.5" y1="603.2" x2="259.3" y2="588.7" stroke="#3b424a" stroke-width="2.2"/><line x1="249.5" y1="603.2" x2="264.1" y2="603.2" stroke="#3b424a" stroke-width="2.2"/><line x1="264.1" y1="603.2" x2="259.3" y2="588.7" stroke="#3b424a" stroke-width="2.2"/><line x1="264.1" y1="603.2" x2="277.4" y2="587.9" stroke="#3b424a" stroke-width="2.2"/><line x1="278.7" y1="603.2" x2="277.4" y2="587.9" stroke="#3b424a" stroke-width="2.2"/><line x1="259.3" y1="588.7" x2="277.4" y2="587.9" stroke="#3b424a" stroke-width="2.2"/><circle cx="262.8" cy="574.5" r="3.0" fill="#3b424a"/><path d="M256.9 578.7 Q262.8 575.7 268.6 578.7 L268.1 588.5 L257.5 588.5 Z" fill="#3b424a"/><rect x="257.5" y="588.5" width="4.2" height="13.4" fill="#3b424a"/><rect x="263.8" y="588.5" width="4.2" height="13.4" fill="#3b424a"/><rect x="353.5" y="546.5" width="4.8" height="65.5" fill="#806045" rx="2"/><ellipse cx="355.9" cy="510.3" rx="61.0" ry="55.2" fill="#4e7d56"/><ellipse cx="355.9" cy="498.2" rx="56.1" ry="51.7" fill="#6aa06f"/><ellipse cx="337.6" cy="484.4" rx="29.3" ry="29.3" fill="#7fb183"/><line x1="355.9" y1="612.0" x2="355.9" y2="413.1" stroke="#979ea4" stroke-width="3" stroke-linecap="round"/><line x1="355.9" y1="413.1" x2="391.7" y2="409.9" stroke="#979ea4" stroke-width="2.4"/><rect x="377.1" y="406.9" width="14.6" height="6" rx="3" fill="#6b7176"/><circle cx="397.5" cy="414.9" r="2.4" fill="#f2dd92"/><rect x="449.4" y="605.1" width="8.5" height="6.9" rx="6" fill="#2a2c2f"/><rect x="479.3" y="605.1" width="8.5" height="6.9" rx="6" fill="#2a2c2f"/><path d="M453.1 595.3 C455.6 588.1 459.3 588.1 460.6 588.1 L476.6 588.1 C477.9 588.1 481.6 588.1 484.0 595.3 Z" fill="#5b6166"/><path d="M456.2 592.3 L461.8 593.1 L475.4 593.1 L480.9 592.3 Z" fill="#cfe0ea"/><rect x="444.5" y="595.3" width="48.3" height="13.3" rx="9" fill="#5b6166" stroke="#00000018" stroke-width="1"/><rect x="447.7" y="603.0" width="3.2" height="2.7" rx="2" fill="#f3e8c8"/><rect x="486.3" y="603.0" width="3.2" height="2.7" rx="2" fill="#f3e8c8"/><rect x="542.2" y="605.1" width="8.5" height="6.9" rx="6" fill="#2a2c2f"/><rect x="572.1" y="605.1" width="8.5" height="6.9" rx="6" fill="#2a2c2f"/><path d="M546.0 595.3 C548.4 588.1 552.1 588.1 553.4 588.1 L569.4 588.1 C570.7 588.1 574.4 588.1 576.9 595.3 Z" fill="#41719f"/><path d="M549.1 592.3 L554.6 593.1 L568.2 593.1 L573.8 592.3 Z" fill="#cfe0ea"/><rect x="537.3" y="595.3" width="48.3" height="13.3" rx="9" fill="#41719f" stroke="#00000018" stroke-width="1"/><rect x="540.5" y="603.0" width="3.2" height="2.7" rx="2" fill="#f3e8c8"/><rect x="579.1" y="603.0" width="3.2" height="2.7" rx="2" fill="#f3e8c8"/><rect x="635.0" y="605.1" width="8.5" height="6.9" rx="6" fill="#2a2c2f"/><rect x="665.0" y="605.1" width="8.5" height="6.9" rx="6" fill="#2a2c2f"/><path d="M638.8 595.3 C641.3 588.1 645.0 588.1 646.2 588.1 L662.3 588.1 C663.5 588.1 667.2 588.1 669.7 595.3 Z" fill="#5a8f63"/><path d="M641.9 592.3 L647.4 593.1 L661.0 593.1 L666.6 592.3 Z" fill="#cfe0ea"/><rect x="630.1" y="595.3" width="48.3" height="13.3" rx="9" fill="#5a8f63" stroke="#00000018" stroke-width="1"/><rect x="633.3" y="603.0" width="3.2" height="2.7" rx="2" fill="#f3e8c8"/><rect x="672.0" y="603.0" width="3.2" height="2.7" rx="2" fill="#f3e8c8"/><rect x="817.6" y="551.5" width="4.8" height="60.5" fill="#806045" rx="2"/><ellipse cx="820.0" cy="518.1" rx="58.3" ry="50.9" fill="#4e7d56"/><ellipse cx="820.0" cy="507.0" rx="53.7" ry="47.7" fill="#6aa06f"/><ellipse cx="802.5" cy="494.2" rx="28.0" ry="27.1" fill="#7fb183"/><rect x="966.6" y="605.1" width="8.5" height="6.9" rx="6" fill="#2a2c2f"/><rect x="996.5" y="605.1" width="8.5" height="6.9" rx="6" fill="#2a2c2f"/><path d="M970.3 595.3 C972.8 588.1 976.5 588.1 977.7 588.1 L993.8 588.1 C995.0 588.1 998.7 588.1 1001.2 595.3 Z" fill="#b15a4e"/><path d="M973.4 592.3 L979.0 593.1 L992.6 593.1 L998.1 592.3 Z" fill="#cfe0ea"/><rect x="961.6" y="595.3" width="48.3" height="13.3" rx="9" fill="#b15a4e" stroke="#00000018" stroke-width="1"/><rect x="964.9" y="603.0" width="3.2" height="2.7" rx="2" fill="#f3e8c8"/><rect x="1003.5" y="603.0" width="3.2" height="2.7" rx="2" fill="#f3e8c8"/><rect x="1059.4" y="605.1" width="8.5" height="6.9" rx="6" fill="#2a2c2f"/><rect x="1089.3" y="605.1" width="8.5" height="6.9" rx="6" fill="#2a2c2f"/><path d="M1063.1 595.3 C1065.6 588.1 1069.3 588.1 1070.6 588.1 L1086.6 588.1 C1087.9 588.1 1091.6 588.1 1094.0 595.3 Z" fill="#9a6f3f"/><path d="M1066.2 592.3 L1071.8 593.1 L1085.4 593.1 L1090.9 592.3 Z" fill="#cfe0ea"/><rect x="1054.5" y="595.3" width="48.3" height="13.3" rx="9" fill="#9a6f3f" stroke="#00000018" stroke-width="1"/><rect x="1057.7" y="603.0" width="3.2" height="2.7" rx="2" fill="#f3e8c8"/><rect x="1096.3" y="603.0" width="3.2" height="2.7" rx="2" fill="#f3e8c8"/><rect x="1152.2" y="605.1" width="8.5" height="6.9" rx="6" fill="#2a2c2f"/><rect x="1182.1" y="605.1" width="8.5" height="6.9" rx="6" fill="#2a2c2f"/><path d="M1156.0 595.3 C1158.4 588.1 1162.1 588.1 1163.4 588.1 L1179.4 588.1 C1180.7 588.1 1184.4 588.1 1186.9 595.3 Z" fill="#5b6166"/><path d="M1159.1 592.3 L1164.6 593.1 L1178.2 593.1 L1183.8 592.3 Z" fill="#cfe0ea"/><rect x="1147.3" y="595.3" width="48.3" height="13.3" rx="9" fill="#5b6166" stroke="#00000018" stroke-width="1"/><rect x="1150.5" y="603.0" width="3.2" height="2.7" rx="2" fill="#f3e8c8"/><rect x="1189.1" y="603.0" width="3.2" height="2.7" rx="2" fill="#f3e8c8"/><rect x="1281.7" y="546.5" width="4.8" height="65.5" fill="#806045" rx="2"/><ellipse cx="1284.1" cy="510.3" rx="61.0" ry="55.2" fill="#4e7d56"/><ellipse cx="1284.1" cy="498.2" rx="56.1" ry="51.7" fill="#6aa06f"/><ellipse cx="1265.8" cy="484.4" rx="29.3" ry="29.3" fill="#7fb183"/><line x1="1284.1" y1="612.0" x2="1284.1" y2="413.1" stroke="#979ea4" stroke-width="3" stroke-linecap="round"/><line x1="1284.1" y1="413.1" x2="1248.3" y2="409.9" stroke="#979ea4" stroke-width="2.4"/><rect x="1248.3" y="406.9" width="14.6" height="6" rx="3" fill="#6b7176"/><circle cx="1242.5" cy="414.9" r="2.4" fill="#f2dd92"/><circle cx="1374.3" cy="570.0" r="3.0" fill="#3b424a"/><path d="M1368.5 574.2 Q1374.3 571.2 1380.1 574.2 L1379.6 592.2 L1369.0 592.2 Z" fill="#3b424a"/><rect x="1369.0" y="592.2" width="4.2" height="19.8" fill="#3b424a"/><rect x="1375.4" y="592.2" width="4.2" height="19.8" fill="#3b424a"/><circle cx="1390.0" cy="603.2" r="8.8" fill="none" stroke="#3b424a" stroke-width="2.4"/><circle cx="1419.1" cy="603.2" r="8.8" fill="none" stroke="#3b424a" stroke-width="2.4"/><line x1="1390.0" y1="603.2" x2="1399.8" y2="588.7" stroke="#3b424a" stroke-width="2.2"/><line x1="1390.0" y1="603.2" x2="1404.5" y2="603.2" stroke="#3b424a" stroke-width="2.2"/><line x1="1404.5" y1="603.2" x2="1399.8" y2="588.7" stroke="#3b424a" stroke-width="2.2"/><line x1="1404.5" y1="603.2" x2="1417.8" y2="587.9" stroke="#3b424a" stroke-width="2.2"/><line x1="1419.1" y1="603.2" x2="1417.8" y2="587.9" stroke="#3b424a" stroke-width="2.2"/><line x1="1399.8" y1="588.7" x2="1417.8" y2="587.9" stroke="#3b424a" stroke-width="2.2"/><circle cx="1403.2" cy="574.5" r="3.0" fill="#3b424a"/><path d="M1397.4 578.7 Q1403.2 575.7 1409.0 578.7 L1408.5 588.5 L1397.9 588.5 Z" fill="#3b424a"/><rect x="1397.9" y="588.5" width="4.2" height="13.4" fill="#3b424a"/><rect x="1404.3" y="588.5" width="4.2" height="13.4" fill="#3b424a"/><line x1="210.0" y1="150.0" x2="1430.0" y2="150.0" stroke="#5a6066" stroke-width="1.2"/><line x1="206.0" y1="154.0" x2="214.0" y2="146.0" stroke="#5a6066" stroke-width="1.4"/><line x1="1426.0" y1="154.0" x2="1434.0" y2="146.0" stroke="#5a6066" stroke-width="1.4"/><text x="820.0" y="143.0" font-family="Helvetica, Arial, sans-serif" font-size="15" fill="#5a6066" text-anchor="middle" font-weight="bold">R.O.W.  46.00</text><text x="210.0" y="164.0" font-family="Helvetica, Arial, sans-serif" font-size="11" fill="#5a6066" text-anchor="middle" font-weight="normal">P.L.</text><text x="1430.0" y="164.0" font-family="Helvetica, Arial, sans-serif" font-size="11" fill="#5a6066" text-anchor="middle" font-weight="normal">P.L.</text><line x1="210.0" y1="176.0" x2="422.2" y2="176.0" stroke="#5a6066" stroke-width="1.2"/><line x1="206.0" y1="180.0" x2="214.0" y2="172.0" stroke="#5a6066" stroke-width="1.4"/><line x1="418.2" y1="180.0" x2="426.2" y2="172.0" stroke="#5a6066" stroke-width="1.4"/><text x="316.1" y="169.0" font-family="Helvetica, Arial, sans-serif" font-size="12" fill="#5a6066" text-anchor="middle" font-weight="normal">8.00</text><line x1="422.2" y1="176.0" x2="1217.8" y2="176.0" stroke="#5a6066" stroke-width="1.2"/><line x1="418.2" y1="180.0" x2="426.2" y2="172.0" stroke="#5a6066" stroke-width="1.4"/><line x1="1213.8" y1="180.0" x2="1221.8" y2="172.0" stroke="#5a6066" stroke-width="1.4"/><text x="820.0" y="169.0" font-family="Helvetica, Arial, sans-serif" font-size="12" fill="#5a6066" text-anchor="middle" font-weight="normal">30.00</text><line x1="1217.8" y1="176.0" x2="1430.0" y2="176.0" stroke="#5a6066" stroke-width="1.2"/><line x1="1213.8" y1="180.0" x2="1221.8" y2="172.0" stroke="#5a6066" stroke-width="1.4"/><line x1="1426.0" y1="180.0" x2="1434.0" y2="172.0" stroke="#5a6066" stroke-width="1.4"/><text x="1323.9" y="169.0" font-family="Helvetica, Arial, sans-serif" font-size="12" fill="#5a6066" text-anchor="middle" font-weight="normal">8.00</text><line x1="206.0" y1="653.0" x2="214.0" y2="645.0" stroke="#5a6066" stroke-width="1.4"/><line x1="285.6" y1="653.0" x2="293.6" y2="645.0" stroke="#5a6066" stroke-width="1.4"/><line x1="210.0" y1="649.0" x2="289.6" y2="649.0" stroke="#5a6066" stroke-width="1"/><text x="249.8" y="673.0" font-family="Helvetica, Arial, sans-serif" font-size="12.5" fill="#23272b" text-anchor="middle" font-weight="bold">MULTI-USE PATHWAY</text><text x="249.8" y="690.0" font-family="Helvetica, Arial, sans-serif" font-size="12" fill="#5a6066" text-anchor="middle" font-weight="normal">3 m</text><line x1="285.6" y1="653.0" x2="293.6" y2="645.0" stroke="#5a6066" stroke-width="1.4"/><line x1="418.2" y1="653.0" x2="426.2" y2="645.0" stroke="#5a6066" stroke-width="1.4"/><line x1="289.6" y1="649.0" x2="422.2" y2="649.0" stroke="#5a6066" stroke-width="1"/><text x="355.9" y="673.0" font-family="Helvetica, Arial, sans-serif" font-size="12.5" fill="#23272b" text-anchor="middle" font-weight="bold">BOULEVARD</text><text x="355.9" y="690.0" font-family="Helvetica, Arial, sans-serif" font-size="12" fill="#5a6066" text-anchor="middle" font-weight="normal">5 m</text><line x1="418.2" y1="653.0" x2="426.2" y2="645.0" stroke="#5a6066" stroke-width="1.4"/><line x1="511.0" y1="653.0" x2="519.0" y2="645.0" stroke="#5a6066" stroke-width="1.4"/><line x1="422.2" y1="649.0" x2="515.0" y2="649.0" stroke="#5a6066" stroke-width="1"/><text x="468.6" y="673.0" font-family="Helvetica, Arial, sans-serif" font-size="12.5" fill="#23272b" text-anchor="middle" font-weight="bold">TRANSIT / HOV</text><text x="468.6" y="690.0" font-family="Helvetica, Arial, sans-serif" font-size="12" fill="#5a6066" text-anchor="middle" font-weight="normal">3.5 m</text><line x1="511.0" y1="653.0" x2="519.0" y2="645.0" stroke="#5a6066" stroke-width="1.4"/><line x1="603.8" y1="653.0" x2="611.8" y2="645.0" stroke="#5a6066" stroke-width="1.4"/><line x1="515.0" y1="649.0" x2="607.8" y2="649.0" stroke="#5a6066" stroke-width="1"/><text x="561.4" y="673.0" font-family="Helvetica, Arial, sans-serif" font-size="12.5" fill="#23272b" text-anchor="middle" font-weight="bold">TRAVEL LANE</text><text x="561.4" y="690.0" font-family="Helvetica, Arial, sans-serif" font-size="12" fill="#5a6066" text-anchor="middle" font-weight="normal">3.5 m</text><line x1="603.8" y1="653.0" x2="611.8" y2="645.0" stroke="#5a6066" stroke-width="1.4"/><line x1="696.7" y1="653.0" x2="704.7" y2="645.0" stroke="#5a6066" stroke-width="1.4"/><line x1="607.8" y1="649.0" x2="700.7" y2="649.0" stroke="#5a6066" stroke-width="1"/><text x="654.2" y="673.0" font-family="Helvetica, Arial, sans-serif" font-size="12.5" fill="#23272b" text-anchor="middle" font-weight="bold">TRAVEL LANE</text><text x="654.2" y="690.0" font-family="Helvetica, Arial, sans-serif" font-size="12" fill="#5a6066" text-anchor="middle" font-weight="normal">3.5 m</text><line x1="696.7" y1="653.0" x2="704.7" y2="645.0" stroke="#5a6066" stroke-width="1.4"/><line x1="935.3" y1="653.0" x2="943.3" y2="645.0" stroke="#5a6066" stroke-width="1.4"/><line x1="700.7" y1="649.0" x2="939.3" y2="649.0" stroke="#5a6066" stroke-width="1"/><text x="820.0" y="673.0" font-family="Helvetica, Arial, sans-serif" font-size="12.5" fill="#23272b" text-anchor="middle" font-weight="bold">PLANTED MEDIAN</text><text x="820.0" y="690.0" font-family="Helvetica, Arial, sans-serif" font-size="12" fill="#5a6066" text-anchor="middle" font-weight="normal">9 m</text><line x1="935.3" y1="653.0" x2="943.3" y2="645.0" stroke="#5a6066" stroke-width="1.4"/><line x1="1028.2" y1="653.0" x2="1036.2" y2="645.0" stroke="#5a6066" stroke-width="1.4"/><line x1="939.3" y1="649.0" x2="1032.2" y2="649.0" stroke="#5a6066" stroke-width="1"/><text x="985.8" y="673.0" font-family="Helvetica, Arial, sans-serif" font-size="12.5" fill="#23272b" text-anchor="middle" font-weight="bold">TRAVEL LANE</text><text x="985.8" y="690.0" font-family="Helvetica, Arial, sans-serif" font-size="12" fill="#5a6066" text-anchor="middle" font-weight="normal">3.5 m</text><line x1="1028.2" y1="653.0" x2="1036.2" y2="645.0" stroke="#5a6066" stroke-width="1.4"/><line x1="1121.0" y1="653.0" x2="1129.0" y2="645.0" stroke="#5a6066" stroke-width="1.4"/><line x1="1032.2" y1="649.0" x2="1125.0" y2="649.0" stroke="#5a6066" stroke-width="1"/><text x="1078.6" y="673.0" font-family="Helvetica, Arial, sans-serif" font-size="12.5" fill="#23272b" text-anchor="middle" font-weight="bold">TRAVEL LANE</text><text x="1078.6" y="690.0" font-family="Helvetica, Arial, sans-serif" font-size="12" fill="#5a6066" text-anchor="middle" font-weight="normal">3.5 m</text><line x1="1121.0" y1="653.0" x2="1129.0" y2="645.0" stroke="#5a6066" stroke-width="1.4"/><line x1="1213.8" y1="653.0" x2="1221.8" y2="645.0" stroke="#5a6066" stroke-width="1.4"/><line x1="1125.0" y1="649.0" x2="1217.8" y2="649.0" stroke="#5a6066" stroke-width="1"/><text x="1171.4" y="673.0" font-family="Helvetica, Arial, sans-serif" font-size="12.5" fill="#23272b" text-anchor="middle" font-weight="bold">TRANSIT / HOV</text><text x="1171.4" y="690.0" font-family="Helvetica, Arial, sans-serif" font-size="12" fill="#5a6066" text-anchor="middle" font-weight="normal">3.5 m</text><line x1="1213.8" y1="653.0" x2="1221.8" y2="645.0" stroke="#5a6066" stroke-width="1.4"/><line x1="1346.4" y1="653.0" x2="1354.4" y2="645.0" stroke="#5a6066" stroke-width="1.4"/><line x1="1217.8" y1="649.0" x2="1350.4" y2="649.0" stroke="#5a6066" stroke-width="1"/><text x="1284.1" y="673.0" font-family="Helvetica, Arial, sans-serif" font-size="12.5" fill="#23272b" text-anchor="middle" font-weight="bold">BOULEVARD</text><text x="1284.1" y="690.0" font-family="Helvetica, Arial, sans-serif" font-size="12" fill="#5a6066" text-anchor="middle" font-weight="normal">5 m</text><line x1="1346.4" y1="653.0" x2="1354.4" y2="645.0" stroke="#5a6066" stroke-width="1.4"/><line x1="1426.0" y1="653.0" x2="1434.0" y2="645.0" stroke="#5a6066" stroke-width="1.4"/><line x1="1350.4" y1="649.0" x2="1430.0" y2="649.0" stroke="#5a6066" stroke-width="1"/><text x="1390.2" y="673.0" font-family="Helvetica, Arial, sans-serif" font-size="12.5" fill="#23272b" text-anchor="middle" font-weight="bold">MULTI-USE PATHWAY</text><text x="1390.2" y="690.0" font-family="Helvetica, Arial, sans-serif" font-size="12" fill="#5a6066" text-anchor="middle" font-weight="normal">3 m</text><rect x="210.0" y="786.0" width="26.5" height="8" fill="#23272b" stroke="#23272b" stroke-width="0.8"/><rect x="236.5" y="786.0" width="26.5" height="8" fill="#ffffff" stroke="#23272b" stroke-width="0.8"/><rect x="263.0" y="786.0" width="26.5" height="8" fill="#23272b" stroke="#23272b" stroke-width="0.8"/><rect x="289.6" y="786.0" width="26.5" height="8" fill="#ffffff" stroke="#23272b" stroke-width="0.8"/><rect x="316.1" y="786.0" width="26.5" height="8" fill="#23272b" stroke="#23272b" stroke-width="0.8"/><text x="210.0" y="778.0" font-family="Helvetica, Arial, sans-serif" font-size="10" fill="#5a6066" text-anchor="middle" font-weight="normal">0</text><text x="342.6" y="778.0" font-family="Helvetica, Arial, sans-serif" font-size="10" fill="#5a6066" text-anchor="middle" font-weight="normal">5 m</text><text x="1430.0" y="794.0" font-family="Helvetica, Arial, sans-serif" font-size="10.5" fill="#b4babc" text-anchor="end" font-weight="normal" font-style="italic">City of Calgary Street Manual DRAFT 4.0 — dimensions subject to change</text></svg>