<svg xmlns="http://www.w3.org/2000/svg" width="1600" height="900" viewBox="0 0 1600 900">
  <defs>
    <linearGradient id="bg5" x1="0" y1="0" x2="1" y2="1">
      <stop offset="0%" stop-color="#0d2237"/>
      <stop offset="100%" stop-color="#102f4a"/>
    </linearGradient>
    <linearGradient id="map5" x1="0" y1="0" x2="1" y2="1">
      <stop offset="0%" stop-color="#829a85"/>
      <stop offset="100%" stop-color="#3d5962"/>
    </linearGradient>
    <pattern id="grid" width="24" height="24" patternUnits="userSpaceOnUse">
      <path d="M24 0 L0 0 0 24" fill="none" stroke="#8fb4ce" stroke-opacity="0.18" stroke-width="1"/>
    </pattern>
    <filter id="softShadow" x="-20%" y="-20%" width="140%" height="140%">
      <feDropShadow dx="0" dy="8" stdDeviation="10" flood-opacity="0.22"/>
    </filter>
  </defs>
  <rect width="1600" height="900" fill="url(#bg5)"/>
  <rect x="32" y="28" width="1536" height="72" rx="18" fill="#123958" filter="url(#softShadow)"/>
  <text x="70" y="72" fill="#e7f3ff" font-size="26" font-family="Segoe UI, Arial" font-weight="700">SiteForge</text>
  <rect x="300" y="44" width="174" height="40" rx="10" fill="#2b66a8"/>
  <text x="387" y="69" fill="#fff" font-size="14" text-anchor="middle" font-family="Segoe UI, Arial">1 Draw &amp; Style</text>
  <rect x="486" y="44" width="128" height="40" rx="10" fill="#1d4c79"/>
  <text x="550" y="69" fill="#c2dcf5" font-size="14" text-anchor="middle" font-family="Segoe UI, Arial">2 AI Render</text>
  <rect x="32" y="110" width="1536" height="594" rx="16" fill="url(#map5)" filter="url(#softShadow)"/>
  <rect x="32" y="110" width="1536" height="594" rx="16" fill="url(#grid)" opacity="0.35"/>
  <path d="M34 316 C266 246, 448 350, 688 304 C932 256, 1130 360, 1360 320 C1458 302, 1528 306, 1568 324 L1568 388 C1446 366, 1302 410, 1118 448 C894 494, 706 390, 500 440 C288 494, 150 420, 34 454 Z" fill="#7fd0d6" opacity="0.52"/>
  <g stroke="#eef4ed" stroke-opacity="0.23" stroke-width="1.8">
    <path d="M80 238 L420 504 L746 228 L1076 504 L1520 246"/>
    <path d="M72 474 L388 336 L760 570 L1106 374 L1526 552"/>
    <path d="M214 154 L266 650"/>
    <path d="M820 146 L890 650"/>
    <path d="M1320 162 L1402 642"/>
  </g>
  <rect x="56" y="130" width="142" height="34" rx="8" fill="#0e5d41"/>
  <text x="127" y="152" fill="#a4ffd2" font-size="13" text-anchor="middle" font-family="Segoe UI, Arial">Pitch 60° optimal</text>
  <rect x="1450" y="130" width="94" height="184" rx="8" fill="#f7fbff"/>
  <rect x="1486" y="154" width="22" height="22" rx="4" fill="#e6eef7"/>
  <rect x="1486" y="186" width="22" height="22" rx="4" fill="#e6eef7"/>
  <rect x="1486" y="218" width="22" height="22" rx="4" fill="#e6eef7"/>
  <rect x="1486" y="250" width="22" height="22" rx="4" fill="#e6eef7"/>
  <rect x="32" y="726" width="1536" height="140" rx="16" fill="#123958" filter="url(#softShadow)"/>
  <rect x="54" y="746" width="364" height="100" rx="10" fill="#18466d" stroke="#3f7099"/>
  <rect x="428" y="746" width="364" height="100" rx="10" fill="#18466d" stroke="#3f7099"/>
  <rect x="802" y="746" width="364" height="100" rx="10" fill="#215684" stroke="#6fa8da" stroke-width="2"/>
  <rect x="1176" y="746" width="368" height="100" rx="10" fill="#18466d" stroke="#3f7099"/>
  <text x="74" y="782" fill="#d9e9f8" font-size="19" font-family="Segoe UI, Arial">Site Boundary</text>
  <text x="448" y="782" fill="#d9e9f8" font-size="19" font-family="Segoe UI, Arial">Streets and Paths</text>
  <text x="822" y="782" fill="#ffffff" font-size="19" font-family="Segoe UI, Arial">Buildings</text>
  <text x="1196" y="782" fill="#d9e9f8" font-size="19" font-family="Segoe UI, Arial">Parks / Plazas</text>
  <rect x="1418" y="770" width="126" height="54" rx="10" fill="#2f8bff"/>
  <text x="1481" y="804" fill="#fff" font-size="18" text-anchor="middle" font-family="Segoe UI, Arial">AI Render</text>
  <text x="58" y="888" fill="#a2bfd8" font-size="14" font-family="Segoe UI, Arial">Concept 5: Blueprint-inspired style with technical grid accents and strong legibility</text>
</svg>
